{
  "asset": {
    "generator": "Khronos glTF Blender I/O v3.6.27",
    "version": "2.0"
  },
  "scene": 0,
  "scenes": [
    {
      "name": "Scene",
      "nodes": [
        0,
        1,
        2,
        3,
        4,
        5,
        6,
        7,
        8,
        9,
        10,
        11
      ]
    }
  ],
  "nodes": [
    {
      "mesh": 0,
      "name": "modular_metal_gutter_outlet",
      "translation": [
        0.00026392273139208555,
        0.2659955620765686,
        -0.09700363129377365
      ]
    },
    {
      "mesh": 1,
      "name": "modular_metal_gutter_coupler",
      "translation": [
        -0.34993818402290344,
        1.1565744876861572,
        -0.18889126181602478
      ]
    },
    {
      "mesh": 2,
      "name": "modular_metal_gutter_funnel",
      "translation": [
        -0.3444826900959015,
        1.4732863903045654,
        -0.18926459550857544
      ]
    },
    {
      "mesh": 3,
      "name": "modular_metal_gutter_bend",
      "translation": [
        -0.003268725238740444,
        0.8841291069984436,
        -0.43444961309432983
      ]
    },
    {
      "mesh": 4,
      "name": "modular_metal_gutter_bracing",
      "translation": [
        0.6844644546508789,
        1.4016845226287842,
        -0.4033917486667633
      ]
    },
    {
      "mesh": 5,
      "name": "modular_metal_gutter_gutter_plug",
      "translation": [
        0.26700446009635925,
        1.0654358863830566,
        -0.20052556693553925
      ]
    },
    {
      "mesh": 6,
      "name": "modular_metal_gutter",
      "translation": [
        0.24303507804870605,
        0.5854203104972839,
        -0.11148516833782196
      ]
    },
    {
      "mesh": 7,
      "name": "modular_metal_gutter_gutter_bracing",
      "translation": [
        1.1974576711654663,
        0.9337800145149231,
        -0.22325170040130615
      ]
    },
    {
      "mesh": 8,
      "name": "modular_metal_gutter_corner",
      "translation": [
        0.2422628402709961,
        0.06442034244537354,
        -0.11148516833782196
      ]
    },
    {
      "mesh": 9,
      "name": "modular_metal_gutter_shower_receiver",
      "translation": [
        0.6861612796783447,
        0.8302709460258484,
        -0.20011380314826965
      ]
    },
    {
      "mesh": 10,
      "name": "modular_metal_gutter_gutter_coupler",
      "translation": [
        1.5894914865493774,
        0.935869038105011,
        -0.22325170040130615
      ]
    },
    {
      "mesh": 11,
      "name": "modular_metal_gutter_section",
      "translation": [
        -0.35098889470100403,
        0.0031348466873168945,
        -0.1865583062171936
      ]
    }
  ],
  "materials": [
    {
      "doubleSided": true,
      "name": "modular_metal_gutter",
      "normalTexture": {
        "index": 0
      },
      "pbrMetallicRoughness": {
        "baseColorTexture": {
          "index": 1
        },
        "metallicRoughnessTexture": {
          "index": 2
        }
      }
    },
    {
      "doubleSided": true,
      "name": "modular_metal_gutter",
      "normalTexture": {
        "index": 3
      },
      "pbrMetallicRoughness": {
        "baseColorTexture": {
          "index": 4
        },
        "metallicRoughnessTexture": {
          "index": 5
        }
      }
    }
  ],
  "meshes": [
    {
      "name": "Cylinder.055",
      "primitives": [
        {
          "attributes": {
            "POSITION": 0,
            "NORMAL": 1,
            "TEXCOORD_0": 2
          },
          "indices": 3,
          "material": 0
        }
      ]
    },
    {
      "name": "Cylinder.056",
      "primitives": [
        {
          "attributes": {
            "POSITION": 4,
            "NORMAL": 5,
            "TEXCOORD_0": 6
          },
          "indices": 7,
          "material": 0
        }
      ]
    },
    {
      "name": "Cylinder.057",
      "primitives": [
        {
          "attributes": {
            "POSITION": 8,
            "NORMAL": 9,
            "TEXCOORD_0": 10
          },
          "indices": 11,
          "material": 0
        }
      ]
    },
    {
      "name": "Cylinder.058",
      "primitives": [
        {
          "attributes": {
            "POSITION": 12,
            "NORMAL": 13,
            "TEXCOORD_0": 14
          },
          "indices": 15,
          "material": 1
        }
      ]
    },
    {
      "name": "Cylinder.059",
      "primitives": [
        {
          "attributes": {
            "POSITION": 16,
            "NORMAL": 17,
            "TEXCOORD_0": 18
          },
          "indices": 19,
          "material": 0
        }
      ]
    },
    {
      "name": "Cylinder.061",
      "primitives": [
        {
          "attributes": {
            "POSITION": 20,
            "NORMAL": 21,
            "TEXCOORD_0": 22
          },
          "indices": 23,
          "material": 0
        }
      ]
    },
    {
      "name": "Cylinder.062",
      "primitives": [
        {
          "attributes": {
            "POSITION": 24,
            "NORMAL": 25,
            "TEXCOORD_0": 26
          },
          "indices": 27,
          "material": 0
        }
      ]
    },
    {
      "name": "Cylinder.063",
      "primitives": [
        {
          "attributes": {
            "POSITION": 28,
            "NORMAL": 29,
            "TEXCOORD_0": 30
          },
          "indices": 31,
          "material": 1
        }
      ]
    },
    {
      "name": "Cylinder.065",
      "primitives": [
        {
          "attributes": {
            "POSITION": 32,
            "NORMAL": 33,
            "TEXCOORD_0": 34
          },
          "indices": 35,
          "material": 0
        }
      ]
    },
    {
      "name": "Cube.002",
      "primitives": [
        {
          "attributes": {
            "POSITION": 36,
            "NORMAL": 37,
            "TEXCOORD_0": 38
          },
          "indices": 39,
          "material": 0
        }
      ]
    },
    {
      "name": "Cylinder.067",
      "primitives": [
        {
          "attributes": {
            "POSITION": 40,
            "NORMAL": 41,
            "TEXCOORD_0": 42
          },
          "indices": 43,
          "material": 0
        }
      ]
    },
    {
      "name": "Cylinder.069",
      "primitives": [
        {
          "attributes": {
            "POSITION": 44,
            "NORMAL": 45,
            "TEXCOORD_0": 46
          },
          "indices": 47,
          "material": 0
        }
      ]
    }
  ],
  "textures": [
    {
      "sampler": 0,
      "source": 0
    },
    {
      "sampler": 0,
      "source": 1
    },
    {
      "sampler": 0,
      "source": 2
    },
    {
      "sampler": 0,
      "source": 0
    },
    {
      "sampler": 0,
      "source": 1
    },
    {
      "sampler": 0,
      "source": 2
    }
  ],
  "images": [
    {
      "mimeType": "image/jpeg",
      "name": "modular_metal_gutter_nor_gl",
      "uri": "textures/modular_metal_gutter_nor_gl_1k.jpg"
    },
    {
      "mimeType": "image/jpeg",
      "name": "modular_metal_gutter_diff",
      "uri": "textures/modular_metal_gutter_diff_1k.jpg"
    },
    {
      "mimeType": "image/jpeg",
      "name": "modular_metal_gutter_metal-modular_metal_gutter_rough",
      "uri": "textures/modular_metal_gutter_arm_1k.jpg"
    }
  ],
  "accessors": [
    {
      "bufferView": 0,
      "componentType": 5126,
      "count": 953,
      "max": [
        0.0765913873910904,
        0.13164561986923218,
        0.0939784049987793
      ],
      "min": [
        -0.07670136541128159,
        -0.2721734642982483,
        -0.16736215353012085
      ],
      "type": "VEC3"
    },
    {
      "bufferView": 1,
      "componentType": 5126,
      "count": 953,
      "type": "VEC3"
    },
    {
      "bufferView": 2,
      "componentType": 5126,
      "count": 953,
      "type": "VEC2"
    },
    {
      "bufferView": 3,
      "componentType": 5123,
      "count": 4212,
      "type": "SCALAR"
    },
    {
      "bufferView": 4,
      "componentType": 5126,
      "count": 420,
      "max": [
        0.07874586433172226,
        0.15469543635845184,
        0.07856845110654831
      ],
      "min": [
        -0.07874584943056107,
        0.0003744160057976842,
        -0.0799250453710556
      ],
      "type": "VEC3"
    },
    {
      "bufferView": 5,
      "componentType": 5126,
      "count": 420,
      "type": "VEC3"
    },
    {
      "bufferView": 6,
      "componentType": 5126,
      "count": 420,
      "type": "VEC2"
    },
    {
      "bufferView": 7,
      "componentType": 5123,
      "count": 2184,
      "type": "SCALAR"
    },
    {
      "bufferView": 8,
      "componentType": 5126,
      "count": 1219,
      "max": [
        0.17191176116466522,
        0.3631439208984375,
        0.171911358833313
      ],
      "min": [
        -0.1710640788078308,
        -0.000054449857998406515,
        -0.1719115972518921
      ],
      "type": "VEC3"
    },
    {
      "bufferView": 9,
      "componentType": 5126,
      "count": 1219,
      "type": "VEC3"
    },
    {
      "bufferView": 10,
      "componentType": 5126,
      "count": 1219,
      "type": "VEC2"
    },
    {
      "bufferView": 11,
      "componentType": 5123,
      "count": 5568,
      "type": "SCALAR"
    },
    {
      "bufferView": 12,
      "componentType": 5126,
      "count": 837,
      "max": [
        0.07783082127571106,
        0.08149117976427078,
        0.3462887108325958
      ],
      "min": [
        -0.08034340292215347,
        -0.25922495126724243,
        -0.000025081391868297942
      ],
      "type": "VEC3"
    },
    {
      "bufferView": 13,
      "componentType": 5126,
      "count": 837,
      "type": "VEC3"
    },
    {
      "bufferView": 14,
      "componentType": 5126,
      "count": 837,
      "type": "VEC2"
    },
    {
      "bufferView": 15,
      "componentType": 5123,
      "count": 4524,
      "type": "SCALAR"
    },
    {
      "bufferView": 16,
      "componentType": 5126,
      "count": 1865,
      "max": [
        0.09931757301092148,
        0.05008911341428757,
        0.28258708119392395
      ],
      "min": [
        -0.09895297884941101,
        -0.050371408462524414,
        0.00007374357664957643
      ],
      "type": "VEC3"
    },
    {
      "bufferView": 17,
      "componentType": 5126,
      "count": 1865,
      "type": "VEC3"
    },
    {
      "bufferView": 18,
      "componentType": 5126,
      "count": 1865,
      "type": "VEC2"
    },
    {
      "bufferView": 19,
      "componentType": 5123,
      "count": 7704,
      "type": "SCALAR"
    },
    {
      "bufferView": 20,
      "componentType": 5126,
      "count": 462,
      "max": [
        0.0001255769602721557,
        0.08012701570987701,
        0.19716231524944305
      ],
      "min": [
        -0.012208797968924046,
        -0.06439390778541565,
        -0.19716231524944305
      ],
      "type": "VEC3"
    },
    {
      "bufferView": 21,
      "componentType": 5126,
      "count": 462,
      "type": "VEC3"
    },
    {
      "bufferView": 22,
      "componentType": 5126,
      "count": 462,
      "type": "VEC2"
    },
    {
      "bufferView": 23,
      "componentType": 5123,
      "count": 1608,
      "type": "SCALAR"
    },
    {
      "bufferView": 24,
      "componentType": 5126,
      "count": 703,
      "max": [
        1.5099010467529297,
        0.07725986838340759,
        0.19456490874290466
      ],
      "min": [
        -0.0010191943729296327,
        -0.06013362109661102,
        -0.19456489384174347
      ],
      "type": "VEC3"
    },
    {
      "bufferView": 25,
      "componentType": 5126,
      "count": 703,
      "type": "VEC3"
    },
    {
      "bufferView": 26,
      "componentType": 5126,
      "count": 703,
      "type": "VEC2"
    },
    {
      "bufferView": 27,
      "componentType": 5123,
      "count": 2220,
      "type": "SCALAR"
    },
    {
      "bufferView": 28,
      "componentType": 5126,
      "count": 724,
      "max": [
        0.01785958744585514,
        0.39206597208976746,
        0.19687438011169434
      ],
      "min": [
        -0.017858631908893585,
        -0.08765114843845367,
        -0.20611798763275146
      ],
      "type": "VEC3"
    },
    {
      "bufferView": 29,
      "componentType": 5126,
      "count": 724,
      "type": "VEC3"
    },
    {
      "bufferView": 30,
      "componentType": 5126,
      "count": 724,
      "type": "VEC2"
    },
    {
      "bufferView": 31,
      "componentType": 5123,
      "count": 2166,
      "type": "SCALAR"
    },
    {
      "bufferView": 32,
      "componentType": 5126,
      "count": 652,
      "max": [
        1.5088330507278442,
        0.07619860023260117,
        0.1945648491382599
      ],
      "min": [
        0.0003879947180394083,
        -0.06122472137212753,
        -1.3201366662979126
      ],
      "type": "VEC3"
    },
    {
      "bufferView": 33,
      "componentType": 5126,
      "count": 652,
      "type": "VEC3"
    },
    {
      "bufferView": 34,
      "componentType": 5126,
      "count": 652,
      "type": "VEC2"
    },
    {
      "bufferView": 35,
      "componentType": 5123,
      "count": 2592,
      "type": "SCALAR"
    },
    {
      "bufferView": 36,
      "componentType": 5126,
      "count": 2129,
      "max": [
        0.20828010141849518,
        0.31026747822761536,
        0.1946723908185959
      ],
      "min": [
        -0.21600034832954407,
        -0.00013597309589385986,
        -0.19445738196372986
      ],
      "type": "VEC3"
    },
    {
      "bufferView": 37,
      "componentType": 5126,
      "count": 2129,
      "type": "VEC3"
    },
    {
      "bufferView": 38,
      "componentType": 5126,
      "count": 2129,
      "type": "VEC2"
    },
    {
      "bufferView": 39,
      "componentType": 5123,
      "count": 9546,
      "type": "SCALAR"
    },
    {
      "bufferView": 40,
      "componentType": 5126,
      "count": 1122,
      "max": [
        0.014922816306352615,
        0.05447922646999359,
        0.19672270119190216
      ],
      "min": [
        -0.014922432601451874,
        -0.0920482873916626,
        -0.1970212757587433
      ],
      "type": "VEC3"
    },
    {
      "bufferView": 41,
      "componentType": 5126,
      "count": 1122,
      "type": "VEC3"
    },
    {
      "bufferView": 42,
      "componentType": 5126,
      "count": 1122,
      "type": "VEC2"
    },
    {
      "bufferView": 43,
      "componentType": 5123,
      "count": 4464,
      "type": "SCALAR"
    },
    {
      "bufferView": 44,
      "componentType": 5126,
      "count": 508,
      "max": [
        0.07866185158491135,
        1.0005747079849243,
        0.07866919040679932
      ],
      "min": [
        -0.07866185158491135,
        0.0006477726856246591,
        -0.08236300945281982
      ],
      "type": "VEC3"
    },
    {
      "bufferView": 45,
      "componentType": 5126,
      "count": 508,
      "type": "VEC3"
    },
    {
      "bufferView": 46,
      "componentType": 5126,
      "count": 508,
      "type": "VEC2"
    },
    {
      "bufferView": 47,
      "componentType": 5123,
      "count": 2682,
      "type": "SCALAR"
    }
  ],
  "bufferViews": [
    {
      "buffer": 0,
      "byteLength": 11436,
      "byteOffset": 0,
      "target": 34962
    },
    {
      "buffer": 0,
      "byteLength": 11436,
      "byteOffset": 11436,
      "target": 34962
    },
    {
      "buffer": 0,
      "byteLength": 7624,
      "byteOffset": 22872,
      "target": 34962
    },
    {
      "buffer": 0,
      "byteLength": 8424,
      "byteOffset": 30496,
      "target": 34963
    },
    {
      "buffer": 0,
      "byteLength": 5040,
      "byteOffset": 38920,
      "target": 34962
    },
    {
      "buffer": 0,
      "byteLength": 5040,
      "byteOffset": 43960,
      "target": 34962
    },
    {
      "buffer": 0,
      "byteLength": 3360,
      "byteOffset": 49000,
      "target": 34962
    },
    {
      "buffer": 0,
      "byteLength": 4368,
      "byteOffset": 52360,
      "target": 34963
    },
    {
      "buffer": 0,
      "byteLength": 14628,
      "byteOffset": 56728,
      "target": 34962
    },
    {
      "buffer": 0,
      "byteLength": 14628,
      "byteOffset": 71356,
      "target": 34962
    },
    {
      "buffer": 0,
      "byteLength": 9752,
      "byteOffset": 85984,
      "target": 34962
    },
    {
      "buffer": 0,
      "byteLength": 11136,
      "byteOffset": 95736,
      "target": 34963
    },
    {
      "buffer": 0,
      "byteLength": 10044,
      "byteOffset": 106872,
      "target": 34962
    },
    {
      "buffer": 0,
      "byteLength": 10044,
      "byteOffset": 116916,
      "target": 34962
    },
    {
      "buffer": 0,
      "byteLength": 6696,
      "byteOffset": 126960,
      "target": 34962
    },
    {
      "buffer": 0,
      "byteLength": 9048,
      "byteOffset": 133656,
      "target": 34963
    },
    {
      "buffer": 0,
      "byteLength": 22380,
      "byteOffset": 142704,
      "target": 34962
    },
    {
      "buffer": 0,
      "byteLength": 22380,
      "byteOffset": 165084,
      "target": 34962
    },
    {
      "buffer": 0,
      "byteLength": 14920,
      "byteOffset": 187464,
      "target": 34962
    },
    {
      "buffer": 0,
      "byteLength": 15408,
      "byteOffset": 202384,
      "target": 34963
    },
    {
      "buffer": 0,
      "byteLength": 5544,
      "byteOffset": 217792,
      "target": 34962
    },
    {
      "buffer": 0,
      "byteLength": 5544,
      "byteOffset": 223336,
      "target": 34962
    },
    {
      "buffer": 0,
      "byteLength": 3696,
      "byteOffset": 228880,
      "target": 34962
    },
    {
      "buffer": 0,
      "byteLength": 3216,
      "byteOffset": 232576,
      "target": 34963
    },
    {
      "buffer": 0,
      "byteLength": 8436,
      "byteOffset": 235792,
      "target": 34962
    },
    {
      "buffer": 0,
      "byteLength": 8436,
      "byteOffset": 244228,
      "target": 34962
    },
    {
      "buffer": 0,
      "byteLength": 5624,
      "byteOffset": 252664,
      "target": 34962
    },
    {
      "buffer": 0,
      "byteLength": 4440,
      "byteOffset": 258288,
      "target": 34963
    },
    {
      "buffer": 0,
      "byteLength": 8688,
      "byteOffset": 262728,
      "target": 34962
    },
    {
      "buffer": 0,
      "byteLength": 8688,
      "byteOffset": 271416,
      "target": 34962
    },
    {
      "buffer": 0,
      "byteLength": 5792,
      "byteOffset": 280104,
      "target": 34962
    },
    {
      "buffer": 0,
      "byteLength": 4332,
      "byteOffset": 285896,
      "target": 34963
    },
    {
      "buffer": 0,
      "byteLength": 7824,
      "byteOffset": 290228,
      "target": 34962
    },
    {
      "buffer": 0,
      "byteLength": 7824,
      "byteOffset": 298052,
      "target": 34962
    },
    {
      "buffer": 0,
      "byteLength": 5216,
      "byteOffset": 305876,
      "target": 34962
    },
    {
      "buffer": 0,
      "byteLength": 5184,
      "byteOffset": 311092,
      "target": 34963
    },
    {
      "buffer": 0,
      "byteLength": 25548,
      "byteOffset": 316276,
      "target": 34962
    },
    {
      "buffer": 0,
      "byteLength": 25548,
      "byteOffset": 341824,
      "target": 34962
    },
    {
      "buffer": 0,
      "byteLength": 17032,
      "byteOffset": 367372,
      "target": 34962
    },
    {
      "buffer": 0,
      "byteLength": 19092,
      "byteOffset": 384404,
      "target": 34963
    },
    {
      "buffer": 0,
      "byteLength": 13464,
      "byteOffset": 403496,
      "target": 34962
    },
    {
      "buffer": 0,
      "byteLength": 13464,
      "byteOffset": 416960,
      "target": 34962
    },
    {
      "buffer": 0,
      "byteLength": 8976,
      "byteOffset": 430424,
      "target": 34962
    },
    {
      "buffer": 0,
      "byteLength": 8928,
      "byteOffset": 439400,
      "target": 34963
    },
    {
      "buffer": 0,
      "byteLength": 6096,
      "byteOffset": 448328,
      "target": 34962
    },
    {
      "buffer": 0,
      "byteLength": 6096,
      "byteOffset": 454424,
      "target": 34962
    },
    {
      "buffer": 0,
      "byteLength": 4064,
      "byteOffset": 460520,
      "target": 34962
    },
    {
      "buffer": 0,
      "byteLength": 5364,
      "byteOffset": 464584,
      "target": 34963
    }
  ],
  "samplers": [
    {
      "magFilter": 9729,
      "minFilter": 9987
    }
  ],
  "buffers": [
    {
      "byteLength": 469948,
      "uri": "modular_metal_gutter.bin"
    }
  ]
}